<svg xmlns="http://www.w3.org/2000/svg" width="20" height="20" viewBox="0 0 20 20" fill="none">
    <path d="M12.1609 2.22223H4.34981C4.07474 2.22951 3.81366 2.34505 3.62329 2.54374C3.43293 2.74243 3.32866 3.00821 3.33315 3.28334V16.7167C3.32866 16.9918 3.43293 17.2576 3.62329 17.4563C3.81366 17.655 4.07474 17.7705 4.34981 17.7778H15.6498C15.9249 17.7705 16.186 17.655 16.3763 17.4563C16.5667 17.2576 16.671 16.9918 16.6665 16.7167V6.62223L12.1609 2.22223ZM11.9943 3.60556L15.3276 6.88334H11.9943V3.60556ZM4.44426 16.6667V3.33334H11.1109V7.77778H15.5554V16.6667H4.44426Z" fill="#7D7D7D"/>
</svg>