<svg xmlns="http://www.w3.org/2000/svg" width="20" height="20" viewBox="0 0 20 20" fill="none">
    <path d="M10.0002 1.11133C8.24217 1.11133 6.52359 1.63265 5.06182 2.60938C3.60005 3.5861 2.46074 4.97435 1.78796 6.59859C1.11518 8.22282 0.93915 10.0101 1.28213 11.7344C1.62511 13.4586 2.47169 15.0425 3.71483 16.2856C4.95796 17.5287 6.54181 18.3753 8.26609 18.7183C9.99036 19.0613 11.7776 18.8853 13.4019 18.2125C15.0261 17.5397 16.4143 16.4004 17.3911 14.9386C18.3678 13.4768 18.8891 11.7583 18.8891 10.0002C18.8891 7.64274 17.9526 5.38181 16.2856 3.71482C14.6186 2.04783 12.3577 1.11133 10.0002 1.11133ZM10.0002 17.778C8.46192 17.778 6.95817 17.3218 5.67912 16.4672C4.40007 15.6126 3.40317 14.3978 2.81449 12.9766C2.22581 11.5554 2.07178 9.99159 2.37189 8.48285C2.672 6.97411 3.41276 5.58824 4.5005 4.5005C5.58824 3.41276 6.97411 2.67199 8.48285 2.37189C9.99159 2.07178 11.5554 2.22581 12.9766 2.81449C14.3979 3.40317 15.6126 4.40007 16.4672 5.67912C17.3218 6.95816 17.778 8.46192 17.778 10.0002C17.778 12.063 16.9586 14.0413 15.4999 15.4999C14.0413 16.9586 12.063 17.778 10.0002 17.778Z" fill="#514A7E"/>
    <path d="M6.05056 8.82769C6.66421 8.82769 7.16167 8.33023 7.16167 7.71658C7.16167 7.10293 6.66421 6.60547 6.05056 6.60547C5.43691 6.60547 4.93945 7.10293 4.93945 7.71658C4.93945 8.33023 5.43691 8.82769 6.05056 8.82769Z" fill="#514A7E"/>
    <path d="M13.9168 8.82769C14.5304 8.82769 15.0279 8.33023 15.0279 7.71658C15.0279 7.10293 14.5304 6.60547 13.9168 6.60547C13.3031 6.60547 12.8057 7.10293 12.8057 7.71658C12.8057 8.33023 13.3031 8.82769 13.9168 8.82769Z" fill="#514A7E"/>
    <path d="M10.0723 15.6722C11.0915 15.6735 12.0848 15.3516 12.9094 14.7526C13.734 14.1536 14.3473 13.3085 14.6612 12.3389H5.4834C5.79726 13.3085 6.4106 14.1536 7.23519 14.7526C8.05978 15.3516 9.05311 15.6735 10.0723 15.6722Z" fill="#514A7E"/>
</svg>