<svg xmlns="http://www.w3.org/2000/svg" width="20" height="20" viewBox="0 0 20 20" fill="none">
    <path d="M10.0002 1.38867C5.10022 1.38867 1.11133 4.87756 1.11133 9.16645C1.11133 13.4553 5.10022 16.9442 10.0002 16.9442C10.917 16.9432 11.8292 16.816 12.7113 16.5664L15.7836 18.522C15.8674 18.5758 15.9642 18.6061 16.0638 18.6096C16.1634 18.6132 16.2621 18.5898 16.3496 18.5421C16.4371 18.4944 16.5101 18.424 16.561 18.3384C16.612 18.2528 16.6389 18.155 16.6391 18.0553V14.3164C17.3342 13.6496 17.889 12.8504 18.2706 11.966C18.6522 11.0815 18.8531 10.1297 18.8613 9.16645C18.8891 4.87756 14.9002 1.38867 10.0002 1.38867ZM15.7169 13.672C15.661 13.7238 15.6164 13.7865 15.5858 13.8563C15.5553 13.9261 15.5394 14.0014 15.5391 14.0776V17.0442L13.1058 15.4942C13.0379 15.4513 12.9615 15.4236 12.8819 15.4131C12.8023 15.4025 12.7214 15.4094 12.6447 15.4331C11.7884 15.6991 10.8968 15.8339 10.0002 15.8331C5.71133 15.8331 2.22244 12.8442 2.22244 9.16645C2.22244 5.48867 5.71133 2.49978 10.0002 2.49978C14.2891 2.49978 17.778 5.48867 17.778 9.16645C17.7653 10.0193 17.5756 10.8601 17.2208 11.6358C16.866 12.4114 16.3538 13.1048 15.7169 13.672Z" fill="#514A7E"/>
    <path d="M10 11.4613C10.1473 11.4613 10.2887 11.4028 10.3928 11.2986C10.497 11.1944 10.5556 11.0531 10.5556 10.9058V4.71132C10.5556 4.56397 10.497 4.42267 10.3928 4.31848C10.2887 4.21429 10.1473 4.15576 10 4.15576C9.85266 4.15576 9.71135 4.21429 9.60717 4.31848C9.50298 4.42267 9.44445 4.56397 9.44445 4.71132V10.8946C9.44297 10.9685 9.45625 11.042 9.4835 11.1107C9.51076 11.1794 9.55145 11.2419 9.60318 11.2947C9.65492 11.3475 9.71667 11.3894 9.7848 11.418C9.85294 11.4466 9.9261 11.4613 10 11.4613Z" fill="#514A7E"/>
    <path d="M9.99963 14.0945C10.4077 14.0945 10.7385 13.7637 10.7385 13.3556C10.7385 12.9475 10.4077 12.6167 9.99963 12.6167C9.59155 12.6167 9.26074 12.9475 9.26074 13.3556C9.26074 13.7637 9.59155 14.0945 9.99963 14.0945Z" fill="#514A7E"/>
</svg>