<svg xmlns="http://www.w3.org/2000/svg" width="10" height="10" viewBox="0 0 10 10" fill="none">
    <g clip-path="url(#clip0_300_11657)">
        <path d="M9.99952 4.76181C10.1057 4.68324 10.1845 4.57363 10.2248 4.44834C10.2651 4.32306 10.2649 4.1884 10.2243 4.06322C10.1836 3.93805 10.1046 3.82865 9.99815 3.75036C9.89175 3.67207 9.76335 3.62882 9.63095 3.62668L7.05953 3.53019C7.04688 3.52932 7.03476 3.52484 7.02462 3.51729C7.01448 3.50974 7.00676 3.49943 7.00238 3.48762L6.11381 1.10384C6.06917 0.982565 5.98808 0.877843 5.88153 0.803854C5.77498 0.729866 5.64811 0.690186 5.5181 0.690186C5.38809 0.690186 5.26122 0.729866 5.15467 0.803854C5.04812 0.877843 4.96703 0.982565 4.92239 1.10384L4.03667 3.49614C4.0323 3.50795 4.02457 3.51825 4.01443 3.5258C4.00429 3.53336 3.99217 3.53784 3.97953 3.5387L1.40811 3.63519C1.27571 3.63734 1.14731 3.68059 1.04091 3.75888C0.934504 3.83716 0.855439 3.94656 0.814796 4.07174C0.774153 4.19691 0.773971 4.33158 0.814274 4.45686C0.854578 4.58214 0.933347 4.69175 1.03954 4.77032L3.05667 6.34532C3.06677 6.35321 3.07432 6.36387 3.07838 6.37597C3.08244 6.38808 3.08284 6.4011 3.07953 6.41343L2.38525 8.8568C2.34927 8.98122 2.35276 9.11363 2.39523 9.23602C2.4377 9.35841 2.51711 9.46482 2.62263 9.5408C2.72816 9.61677 2.85469 9.65861 2.985 9.66063C3.11532 9.66265 3.2431 9.62474 3.35096 9.55207L5.48239 8.13315C5.49288 8.12595 5.50534 8.1221 5.5181 8.1221C5.53086 8.1221 5.54331 8.12595 5.55381 8.13315L7.68524 9.55207C7.79164 9.62723 7.91896 9.66761 8.04952 9.66761C8.18009 9.66761 8.30741 9.62723 8.41381 9.55207C8.51936 9.47681 8.59884 9.37091 8.64131 9.24895C8.68377 9.12698 8.68714 8.99494 8.65095 8.87099L7.95095 6.4191C7.94724 6.40679 7.94745 6.39365 7.95154 6.38146C7.95563 6.36927 7.96341 6.35863 7.97381 6.351L9.99952 4.76181Z" fill="#ccc"/>
    </g>
    <defs>
        <clipPath id="clip0_300_11657">
            <rect width="10.2857" height="10.2162" fill="white" transform="translate(0.285645)"/>
        </clipPath>
    </defs>
</svg>
