<svg xmlns="http://www.w3.org/2000/svg" width="15" height="15" viewBox="0 0 15 15" fill="none">
    <path d="M7.5 3.97959C6.80373 3.97959 6.12309 4.18606 5.54417 4.57289C4.96524 4.95971 4.51402 5.50953 4.24757 6.1528C3.98112 6.79607 3.9114 7.50391 4.04724 8.1868C4.18307 8.86969 4.51836 9.49697 5.0107 9.9893C5.50303 10.4816 6.13031 10.8169 6.8132 10.9528C7.4961 11.0886 8.20393 11.0189 8.8472 10.7524C9.49047 10.486 10.0403 10.0348 10.4271 9.45583C10.8139 8.87691 11.0204 8.19627 11.0204 7.5C11.0194 6.56665 10.6481 5.67184 9.98814 5.01186C9.32816 4.35188 8.43335 3.98065 7.5 3.97959ZM7.5 10.102C6.98536 10.102 6.48229 9.94943 6.05438 9.66352C5.62648 9.3776 5.29297 8.97122 5.09603 8.49576C4.89909 8.0203 4.84756 7.49711 4.94796 6.99237C5.04836 6.48762 5.29618 6.02398 5.66008 5.66008C6.02398 5.29618 6.48762 5.04836 6.99237 4.94796C7.49711 4.84756 8.0203 4.89909 8.49576 5.09603C8.97122 5.29297 9.3776 5.62648 9.66352 6.05438C9.94943 6.48229 10.102 6.98536 10.102 7.5C10.1013 8.18986 9.82685 8.85124 9.33905 9.33905C8.85124 9.82685 8.18986 10.1013 7.5 10.102ZM10.8673 0H4.13265C3.03699 0.00125582 1.98656 0.437062 1.21181 1.21181C0.437062 1.98656 0.00125582 3.03699 0 4.13265V10.8673C0.00125582 11.963 0.437062 13.0134 1.21181 13.7882C1.98656 14.5629 3.03699 14.9987 4.13265 15H10.8673C11.963 14.9987 13.0134 14.5629 13.7882 13.7882C14.5629 13.0134 14.9987 11.963 15 10.8673V4.13265C14.9987 3.03699 14.5629 1.98656 13.7882 1.21181C13.0134 0.437062 11.963 0.00125582 10.8673 0ZM14.0816 10.8673C14.0807 11.7195 13.7417 12.5365 13.1391 13.1391C12.5365 13.7417 11.7195 14.0807 10.8673 14.0816H4.13265C3.28046 14.0807 2.46345 13.7417 1.86086 13.1391C1.25827 12.5365 0.919319 11.7195 0.918367 10.8673V4.13265C0.919319 3.28046 1.25827 2.46345 1.86086 1.86086C2.46345 1.25827 3.28046 0.919319 4.13265 0.918367H10.8673C11.7195 0.919319 12.5365 1.25827 13.1391 1.86086C13.7417 2.46345 14.0807 3.28046 14.0816 4.13265V10.8673ZM12.2449 3.52041C12.2449 3.67177 12.2 3.81974 12.1159 3.94559C12.0318 4.07144 11.9123 4.16953 11.7725 4.22746C11.6326 4.28538 11.4787 4.30054 11.3303 4.27101C11.1818 4.24148 11.0455 4.16859 10.9384 4.06156C10.8314 3.95453 10.7585 3.81817 10.729 3.66971C10.6995 3.52126 10.7146 3.36738 10.7725 3.22754C10.8305 3.0877 10.9286 2.96817 11.0544 2.88408C11.1803 2.79999 11.3282 2.7551 11.4796 2.7551C11.6825 2.75535 11.877 2.83605 12.0205 2.97952C12.1639 3.12299 12.2447 3.31751 12.2449 3.52041Z" fill="#FFFDF5" fill-opacity="0.8"/>
</svg>