<svg xmlns="http://www.w3.org/2000/svg" width="15" height="15" viewBox="0 0 15 15" fill="none">
    <path d="M7.50007 13.5125C7.40801 13.5122 7.31863 13.4814 7.2459 13.425C4.92923 11.625 3.3334 10.075 2.21673 8.54579C0.791733 6.59162 0.466733 4.78746 1.25007 3.18329C1.8084 2.03746 3.41257 1.09996 5.28757 1.64579C6.18154 1.90402 6.96152 2.45779 7.50007 3.21662C8.03862 2.45779 8.81859 1.90402 9.71257 1.64579C11.5834 1.10829 13.1917 2.03746 13.7501 3.18329C14.5334 4.78746 14.2084 6.59162 12.7834 8.54579C11.6667 10.075 10.0709 11.625 7.75424 13.425C7.68151 13.4814 7.59213 13.5122 7.50007 13.5125ZM4.2209 2.32496C3.77476 2.30759 3.33231 2.41206 2.94104 2.62714C2.54978 2.84223 2.22448 3.15981 2.00007 3.54579C1.35423 4.87079 1.6459 6.34579 2.89173 8.04996C4.21572 9.7577 5.76607 11.2772 7.50007 12.5666C9.23379 11.2785 10.7841 9.7604 12.1084 8.05412C13.3584 6.34579 13.6459 4.87079 13.0001 3.54996C12.5834 2.71662 11.3334 2.05412 9.94174 2.44579C9.4955 2.57767 9.08183 2.80151 8.72732 3.10291C8.37282 3.40431 8.08535 3.77659 7.8834 4.19579C7.85201 4.27221 7.79861 4.33758 7.72998 4.38358C7.66136 4.42958 7.5806 4.45414 7.49799 4.45414C7.41537 4.45414 7.33462 4.42958 7.26599 4.38358C7.19736 4.33758 7.14396 4.27221 7.11257 4.19579C6.91214 3.77554 6.62516 3.40239 6.27044 3.1008C5.91572 2.79921 5.50126 2.576 5.05423 2.44579C4.78339 2.36713 4.50293 2.32646 4.2209 2.32496Z" fill="#121212"/>
</svg>