<svg xmlns="http://www.w3.org/2000/svg" width="15" height="13" viewBox="0 0 15 15" fill="none">
    <path d="M13.5216 6.58657H12.8045V11.5684L9.66314 8.3661L9.06133 8.97958L12.1472 12.1297H1.56215L4.54987 8.97958L3.93525 8.3748L0.853634 11.6249V4.08914L6.15897 9.47124C6.31891 9.63331 6.53526 9.72428 6.76078 9.72428C6.9863 9.72428 7.20265 9.63331 7.36259 9.47124L10.2052 6.58657H8.9973L6.76078 8.8534L1.41276 3.4278H7.70832L8.19915 2.55762H0.853634C0.627236 2.55762 0.410111 2.6493 0.250024 2.81249C0.0899362 2.97568 0 3.19701 0 3.4278V12.1297C0 12.3604 0.0899362 12.5818 0.250024 12.745C0.410111 12.9082 0.627236 12.9998 0.853634 12.9998H12.8045C13.0309 12.9998 13.248 12.9082 13.4081 12.745C13.5682 12.5818 13.6581 12.3604 13.6581 12.1297V6.57787L13.5216 6.58657Z" fill="#FFFDF5" fill-opacity="0.8"/>
    <path d="M11.3144 0.287821L8.71026 4.78706C8.66039 4.87499 8.63437 4.97437 8.63477 5.0754C8.63517 5.17642 8.66197 5.2756 8.71253 5.36314C8.76308 5.45069 8.83565 5.52357 8.92308 5.57462C9.0105 5.62566 9.10976 5.65309 9.21106 5.65421H14.4239C14.5252 5.65309 14.6245 5.62566 14.7119 5.57462C14.7993 5.52357 14.8719 5.45069 14.9224 5.36314C14.973 5.2756 14.9998 5.17642 15.0002 5.0754C15.0006 4.97437 14.9746 4.87499 14.9247 4.78706L12.3206 0.287821C12.2692 0.200223 12.1957 0.127561 12.1075 0.0770652C12.0192 0.0265695 11.9192 0 11.8175 0C11.7157 0 11.6158 0.0265695 11.5275 0.0770652C11.4392 0.127561 11.3658 0.200223 11.3144 0.287821Z" fill="#FFFDF5" fill-opacity="0.8"/>
</svg>