<svg xmlns="http://www.w3.org/2000/svg" width="15" height="15" viewBox="0 0 15 15" fill="none">
    <path d="M4.90132 1.58799C4.12132 1.38999 3.30382 1.47399 2.66332 1.83249C2.01082 2.19699 1.55332 2.84349 1.53082 3.70824C1.49632 5.05974 1.80907 6.87324 3.05107 9.00174C4.27732 11.104 5.63107 12.364 6.75457 13.1125C7.46407 13.5857 8.24782 13.5985 8.91757 13.2902C9.57757 12.9865 10.1131 12.3797 10.3913 11.6275C10.4606 11.4404 10.4884 11.2405 10.4729 11.0416C10.4573 10.8427 10.3988 10.6496 10.3013 10.4755L9.58582 9.19824C9.36576 8.8055 9.01173 8.50505 8.58843 8.35178C8.16513 8.19852 7.70081 8.20267 7.28032 8.36349L6.78082 8.55474C6.53857 8.64699 6.31582 8.60424 6.18982 8.47974C5.76607 8.06349 5.46307 7.49874 5.32582 6.88974C5.28232 6.69774 5.37082 6.47124 5.58232 6.31149L6.03307 5.97099C6.39748 5.69601 6.64905 5.29754 6.74059 4.8503C6.83214 4.40306 6.75738 3.93779 6.53032 3.54174L5.80132 2.27049C5.70475 2.10219 5.5753 1.95503 5.42068 1.83778C5.26607 1.72053 5.08944 1.63558 4.90132 1.58799ZM2.28082 3.72774C2.29582 3.14724 2.58982 2.73249 3.02932 2.48649C3.48082 2.23374 4.09732 2.15649 4.71682 2.31399C4.90057 2.36049 5.05657 2.47899 5.15107 2.64324L5.87932 3.91449C6.01553 4.15202 6.06044 4.43107 6.00563 4.69934C5.95081 4.96761 5.80004 5.20668 5.58157 5.37174L5.13082 5.71224C4.74082 6.00624 4.47082 6.51024 4.59382 7.05399C4.76032 7.79049 5.12857 8.48874 5.66407 9.01449C6.05557 9.39849 6.61357 9.42099 7.04857 9.25449L7.54807 9.06324C7.80044 8.96664 8.07915 8.96411 8.33323 9.0561C8.58731 9.14809 8.7998 9.32847 8.93182 9.56424L9.64657 10.8415C9.73657 11.002 9.75157 11.194 9.68782 11.3665C9.47032 11.9552 9.06157 12.397 8.60407 12.6077C8.15632 12.814 7.65007 12.808 7.17082 12.4877C6.14257 11.8022 4.86832 10.6262 3.69832 8.62299C2.52757 6.61374 2.25007 4.93824 2.28157 3.72849L2.28082 3.72774Z" fill="#FFFDF5" fill-opacity="0.8"/>
    <path d="M9.55726 1.54726C9.47034 1.49893 9.36777 1.4871 9.27213 1.51439C9.17649 1.54168 9.0956 1.60584 9.04726 1.69276C8.99893 1.77969 8.9871 1.88225 9.01439 1.9779C9.04168 2.07354 9.10584 2.15443 9.19276 2.20276L9.48076 2.36326C10.3805 2.86307 11.1458 3.57328 11.7113 4.43319C12.2769 5.29311 12.6258 6.27717 12.7283 7.30126L12.7523 7.53751C12.7551 7.58808 12.7681 7.63755 12.7906 7.68294C12.8131 7.72832 12.8445 7.76869 12.883 7.80159C12.9215 7.8345 12.9663 7.85927 13.0146 7.87441C13.0629 7.88955 13.1138 7.89474 13.1642 7.88967C13.2146 7.8846 13.2634 7.86937 13.3078 7.84491C13.3521 7.82045 13.3911 7.78726 13.4222 7.74735C13.4534 7.70743 13.4762 7.66161 13.4892 7.61266C13.5021 7.56371 13.5051 7.51263 13.4978 7.46251L13.4745 7.22701C13.3601 6.08221 12.9701 4.98214 12.338 4.02085C11.7058 3.05957 10.8503 2.26567 9.84451 1.70701L9.55726 1.54726Z" fill="#FFFDF5" fill-opacity="0.8"/>
    <path d="M8.67834 3.55728C8.72957 3.47206 8.81255 3.41067 8.90904 3.38662C9.00552 3.36257 9.1076 3.37783 9.19284 3.42903L9.28584 3.48453C9.8911 3.84757 10.4103 4.33771 10.8076 4.92107C11.2049 5.50443 11.4708 6.1671 11.5868 6.86328L11.6198 7.06353C11.6293 7.11264 11.6288 7.16313 11.6184 7.21205C11.6081 7.26097 11.588 7.30732 11.5595 7.34838C11.5309 7.38944 11.4945 7.42437 11.4522 7.45112C11.41 7.47787 11.3628 7.49591 11.3135 7.50416C11.2642 7.51241 11.2137 7.51072 11.165 7.49918C11.1164 7.48764 11.0705 7.46648 11.0302 7.43696C10.9898 7.40743 10.9558 7.37013 10.93 7.32725C10.9043 7.28437 10.8874 7.23678 10.8803 7.18728L10.8466 6.98703C10.7485 6.39801 10.5236 5.83732 10.1876 5.3437C9.85155 4.85009 9.41235 4.43531 8.90034 4.12803L8.80734 4.07178C8.76508 4.04647 8.72822 4.01309 8.69887 3.97354C8.66951 3.93398 8.64824 3.88903 8.63626 3.84125C8.62428 3.79348 8.62183 3.74381 8.62905 3.69508C8.63627 3.64636 8.65302 3.59953 8.67834 3.55728Z" fill="#FFFDF5" fill-opacity="0.8"/>
</svg>